<svg width="25" height="24" viewBox="0 0 25 24" fill="none" xmlns="http://www.w3.org/2000/svg">
<path d="M11.5489 1.67705C11.8483 0.755743 13.1517 0.75574 13.4511 1.67705L15.5309 8.07827C15.6648 8.49029 16.0488 8.76925 16.482 8.76925L23.2126 8.76925C24.1814 8.76925 24.5841 10.0089 23.8004 10.5783L18.3552 14.5344C18.0047 14.7891 17.8581 15.2405 17.9919 15.6525L20.0718 22.0537C20.3712 22.975 19.3167 23.7411 18.533 23.1717L13.0878 19.2156C12.7373 18.9609 12.2627 18.9609 11.9122 19.2156L6.46701 23.1717C5.6833 23.7411 4.62882 22.975 4.92817 22.0537L7.00805 15.6525C7.14193 15.2405 6.99527 14.7891 6.64478 14.5344L1.19958 10.5783C0.415862 10.0089 0.81864 8.76925 1.78736 8.76925L8.51801 8.76925C8.95123 8.76925 9.33519 8.49029 9.46906 8.07827L11.5489 1.67705Z" fill="#D9D9D9"/>
</svg>
